<?xml version="1.0" encoding="UTF-8" standalone="no"?>
<!-- Created with Inkscape (http://www.inkscape.org/) -->

<svg
   xmlns:dc="http://purl.org/dc/elements/1.1/"
   xmlns:cc="http://creativecommons.org/ns#"
   xmlns:rdf="http://www.w3.org/1999/02/22-rdf-syntax-ns#"
   xmlns:svg="http://www.w3.org/2000/svg"
   xmlns="http://www.w3.org/2000/svg"
   xmlns:sodipodi="http://sodipodi.sourceforge.net/DTD/sodipodi-0.dtd"
   xmlns:inkscape="http://www.inkscape.org/namespaces/inkscape"
   width="210mm"
   height="297mm"
   viewBox="0 0 210 297"
   version="1.1"
   id="svg973"
   inkscape:version="0.92.3 (2405546, 2018-03-11)"
   sodipodi:docname="triviaThumb.svg">
  <defs
     id="defs967">
    <clipPath
       clipPathUnits="userSpaceOnUse"
       id="clipPath1569">
      <rect
         style="opacity:1;fill:#ffffff;fill-opacity:1;stroke:#7c7c7c;stroke-width:0.26499999;stroke-miterlimit:4;stroke-dasharray:none;stroke-dashoffset:0;stroke-opacity:1;paint-order:normal"
         id="rect1571"
         width="136.842"
         height="77.508163"
         x="-280.09845"
         y="-52.054001"
         rx="0.77803105"
         ry="0.29529354" />
    </clipPath>
  </defs>
  <sodipodi:namedview
     id="base"
     pagecolor="#ffffff"
     bordercolor="#666666"
     borderopacity="1.0"
     inkscape:pageopacity="0.0"
     inkscape:pageshadow="2"
     inkscape:zoom="0.7"
     inkscape:cx="-197.06858"
     inkscape:cy="520.96682"
     inkscape:document-units="mm"
     inkscape:current-layer="layer1"
     showgrid="false"
     inkscape:window-width="1920"
     inkscape:window-height="1001"
     inkscape:window-x="-9"
     inkscape:window-y="-9"
     inkscape:window-maximized="1" />
  <metadata
     id="metadata970">
    <rdf:RDF>
      <cc:Work
         rdf:about="">
        <dc:format>image/svg+xml</dc:format>
        <dc:type
           rdf:resource="http://purl.org/dc/dcmitype/StillImage" />
        <dc:title></dc:title>
      </cc:Work>
    </rdf:RDF>
  </metadata>
  <g
     inkscape:label="Layer 1"
     inkscape:groupmode="layer"
     id="layer1">
    <g
       id="g1781"
       transform="translate(17.764881,-12.473214)"
       inkscape:export-xdpi="96"
       inkscape:export-ydpi="96">
      <rect
         ry="0.29529351"
         rx="0.77803105"
         y="94.919945"
         x="24.531458"
         height="126.73499"
         width="126.735"
         id="rect1518"
         style="opacity:1;fill:#000000;fill-opacity:1;stroke:#7c7c7c;stroke-width:0.26499999;stroke-miterlimit:4;stroke-dasharray:none;stroke-dashoffset:0;stroke-opacity:1;paint-order:normal" />
      <path
         inkscape:connector-curvature="0"
         id="path1531"
         d="m 48.699926,157.15633 c -3.348194,-0.29627 -5.963384,-1.41503 -7.948784,-3.40043 -2.339729,-2.33973 -3.268329,-4.82181 -3.162109,-8.45202 0.0824,-2.81771 0.78816,-5.58581 2.246872,-8.81322 2.079918,-4.60184 5.270052,-9.03408 11.422382,-15.86979 1.946737,-2.16297 1.969599,-2.18423 1.550047,-1.44145 -1.583374,2.80321 -2.785518,5.84019 -3.355312,8.47655 -0.242522,1.12211 -0.260127,1.34661 -0.257903,3.28872 0.0021,1.84181 0.02547,2.1674 0.200746,2.79755 0.504941,1.81538 1.322034,3.25593 2.512808,4.43012 1.580756,1.55874 3.424972,2.39199 6.06912,2.74215 2.124275,0.28131 5.468311,0.052 8.224053,-0.56389 0.903437,-0.20192 5.171162,-1.32067 14.899997,-3.90591 2.012602,-0.53481 5.285108,-1.40438 7.272235,-1.93238 1.987126,-0.52801 6.614491,-1.75791 10.283034,-2.73313 3.668538,-0.97521 8.608558,-2.28839 10.977828,-2.91816 4.68342,-1.24489 14.92468,-3.96715 28.02358,-7.44903 4.58568,-1.21894 8.3481,-2.20595 8.36095,-2.19335 0.0128,0.0126 -4.19765,1.82941 -9.35663,4.03738 -5.159,2.20796 -13.15275,5.62903 -17.76391,7.60237 -57.008997,24.397 -53.344592,22.83827 -55.626817,23.66197 -5.638141,2.03491 -10.804143,2.96938 -14.572187,2.63595 z"
         style="fill:#ffffff;stroke-width:1" />
      <path
         style="fill:#ffffff;stroke-width:0.99999994"
         d="m 41.877593,193.6307 0.17639,-7.58472 1.76389,-0.17639 1.76389,-0.17639 0.10603,-2.03615 0.10603,-2.03615 -6.80881,0.0959 -6.80881,0.0959 v 1.94028 1.94027 l 1.76389,0.17639 1.76389,0.17639 0.0904,7.23195 c 0.0497,3.97757 0.1664,7.4371 0.25925,7.68785 0.12284,0.33176 0.91476,0.42782 2.90818,0.35278 l 2.73936,-0.10313 z"
         id="path1709"
         inkscape:connector-curvature="0" />
      <path
         style="fill:#2b0000;stroke-width:0.99999994"
         d="m 38.244423,199.40494 c -0.13606,-0.13606 -0.24738,-3.4753 -0.24738,-7.42053 v -7.17315 l -1.6757,-0.005 c -1.94736,-0.006 -2.7491,-0.39791 -2.44372,-1.19372 0.18397,-0.47943 0.93972,-0.56477 5.00136,-0.56477 4.06164,0 4.8174,0.0853 5.00137,0.56477 0.30507,0.795 -0.49595,1.18743 -2.43657,1.19372 l -1.66854,0.005 -0.0953,7.31553 c -0.0818,6.27494 -0.17307,7.33048 -0.64172,7.42053 -0.3005,0.0577 -0.65769,-0.006 -0.79375,-0.14239 z"
         id="path1707"
         inkscape:connector-curvature="0" />
      <path
         style="fill:#ffffff;stroke-width:0.99999994"
         d="m 58.034593,198.98805 c 0.13537,-2.85479 0.74562,-2.82819 2.53918,0.11071 l 1.29177,2.11667 2.93781,0.10335 c 1.61579,0.0568 3.05846,-0.0225 3.20592,-0.17639 0.14746,-0.15386 -0.43043,-1.47037 -1.2842,-2.92558 -1.69129,-2.8827 -1.85101,-3.55608 -1.00919,-4.25473 1.08049,-0.89672 1.91449,-3.08546 1.91449,-5.02434 0,-2.62978 -1.1423,-4.69855 -3.34985,-6.06676 -1.69328,-1.04947 -1.75065,-1.05833 -6.85178,-1.05833 h -5.1442 l -0.0942,9.34309 c -0.0518,5.1387 -0.0145,9.55073 0.0829,9.80451 0.12974,0.3381 0.90927,0.43387 2.91643,0.35831 l 2.73937,-0.10313 z"
         id="path1705"
         inkscape:connector-curvature="0" />
      <path
         style="fill:#000000;stroke-width:0.99999994"
         d="m 54.659293,191.42584 0.0947,-8.20208 2.46945,-0.11173 c 5.27082,-0.23847 8.29028,1.92227 8.29028,5.93256 0,1.64831 -0.84663,3.73022 -1.72168,4.23372 -1.59661,0.91868 -1.59343,0.86917 -0.21465,3.33464 0.99798,1.78456 1.2209,2.46041 0.91306,2.76824 -0.62276,0.62277 -1.45464,-0.0724 -2.80866,-2.34691 l -1.1861,-1.99247 h -2.0771 -2.0771 v 1.73504 c 0,2.19283 -0.25455,2.85108 -1.10258,2.85108 -0.64728,0 -0.67051,-0.32883 -0.57961,-8.20209 z"
         id="path1703"
         inkscape:connector-curvature="0" />
      <path
         style="fill:#ffffff;stroke-width:0.99999994"
         d="m 61.467513,192.56716 c 1.57583,-0.76284 2.28231,-1.8638 2.28231,-3.55668 0,-2.63595 -2.02265,-4.19922 -5.43318,-4.19922 h -1.97516 v 4.23333 4.23334 h 1.8289 c 1.11235,0 2.40414,-0.27848 3.29713,-0.71077 z"
         id="path1701"
         inkscape:connector-curvature="0" />
      <path
         style="fill:#000000;stroke-width:0.99999994"
         d="m 58.105373,188.8682 v -2.64583 h 1.17323 c 1.50754,0 2.70733,1.22169 2.70733,2.75676 0,1.50604 -1.07389,2.53491 -2.64584,2.53491 h -1.23472 z"
         id="path1699"
         inkscape:connector-curvature="0" />
      <path
         style="fill:#ffffff;stroke-width:0.99999994"
         d="m 80.859533,191.51404 v -9.70139 h -2.9986 -2.99861 l -0.0942,9.34309 c -0.0518,5.1387 -0.0146,9.55047 0.0826,9.80394 0.13041,0.33983 0.94261,0.43392 3.09283,0.3583 l 2.91597,-0.10255 z"
         id="path1697"
         inkscape:connector-curvature="0" />
      <path
         style="fill:#000000;stroke-width:0.99999994"
         d="m 77.155373,191.50294 c 0,-7.1244 0.0695,-8.15165 0.56477,-8.34169 0.31063,-0.11919 0.70507,0.005 0.87654,0.27566 0.34734,0.54854 0.44588,14.75365 0.10845,15.63297 -0.11777,0.30692 -0.51465,0.55803 -0.88195,0.55803 -0.6359,0 -0.66781,-0.38826 -0.66781,-8.12496 z"
         id="path1695"
         inkscape:connector-curvature="0" />
      <path
         style="fill:#ffffff;stroke-width:0.99999994"
         d="m 98.92435,201.11028 c 0.23427,-0.14889 2.03625,-4.39302 4.0044,-9.43141 1.96815,-5.03838 3.66126,-9.36559 3.76246,-9.61603 0.14383,-0.35593 -0.49939,-0.43295 -2.94606,-0.35278 l -3.13007,0.10257 -1.462,3.70416 c -1.62493,4.11697 -2.10442,4.86429 -2.7244,4.24622 -0.21984,-0.21915 -1.05514,-2.09765 -1.85622,-4.17443 l -1.45651,-3.77595 -3.0414,-0.10193 c -1.672777,-0.0561 -3.041407,0.008 -3.041407,0.14163 0,0.44143 7.153947,18.64764 7.504567,19.09849 0.37494,0.48213 3.68938,0.60262 4.38664,0.15947 z"
         id="path1693"
         inkscape:connector-curvature="0" />
      <path
         style="fill:#000000;stroke-width:0.99999994"
         d="m 96.05205,199.31246 c -0.45036,-0.72869 -5.84391,-14.91617 -5.84391,-15.37211 0,-0.71202 0.65556,-1.02088 1.20282,-0.5667 0.25649,0.21287 1.54764,3.16177 2.86922,6.5531 1.32158,3.39133 2.49383,6.07769 2.605,5.96968 0.11117,-0.10801 1.31868,-3.00355 2.68336,-6.43453 2.03907,-5.1265 2.60487,-6.23816 3.175,-6.23816 1.10863,0 0.81546,1.15433 -2.30707,9.08403 -2.30482,5.8531 -3.01347,7.32014 -3.53599,7.32014 -0.35941,0 -0.74121,-0.14195 -0.84843,-0.31545 z"
         id="path1691"
         inkscape:connector-curvature="0" />
      <path
         style="fill:#ffffff;stroke-width:0.99999994"
         d="m 118.95953,191.51402 v -9.70139 h -2.99861 -2.99861 l -0.0942,9.34309 c -0.0518,5.1387 -0.0146,9.55047 0.0826,9.80394 0.1304,0.33983 0.9426,0.43392 3.09282,0.3583 l 2.91598,-0.10255 z"
         id="path1689"
         inkscape:connector-curvature="0" />
      <path
         style="fill:#000000;stroke-width:0.99999994"
         d="m 115.25536,191.53482 c 0,-8.1519 0.13752,-9.04531 1.25018,-8.12189 0.41963,0.34827 0.51371,1.76995 0.51371,7.76264 0,4.03495 -0.0964,7.58739 -0.21413,7.8943 -0.11777,0.30692 -0.51465,0.55803 -0.88195,0.55803 -0.63582,0 -0.66781,-0.38766 -0.66781,-8.09307 z"
         id="path1687"
         inkscape:connector-curvature="0" />
      <path
         style="fill:#ffffff;stroke-width:0.99999994"
         d="m 131.13036,200.33345 c 0.73288,-1.02923 0.83296,-1.05818 3.64,-1.05293 3.11658,0.006 3.44596,0.11218 4.08071,1.31751 0.37091,0.70432 0.68822,0.79375 2.81624,0.79375 1.31903,0 2.48066,-0.0824 2.5814,-0.18316 0.16127,-0.16127 -1.91408,-5.86202 -5.93735,-16.3092 l -1.25667,-3.26319 h -2.19723 -2.19724 l -3.60374,9.53185 c -1.98206,5.24251 -3.50753,9.68751 -3.38994,9.87777 0.11759,0.19026 1.22549,0.34593 2.46201,0.34593 2.09536,0 2.29945,-0.072 3.00181,-1.05833 z"
         id="path1685"
         inkscape:connector-curvature="0" />
      <path
         style="fill:#000000;stroke-width:0.99999994"
         d="m 128.11956,199.25539 c -0.12662,-0.20488 1.09334,-3.86282 2.71103,-8.12875 2.51525,-6.63289 3.06026,-7.78613 3.763,-7.96251 0.45197,-0.11343 0.96183,-0.0662 1.13303,0.10502 0.4502,0.4502 5.98668,15.00729 5.98689,15.74138 2.6e-4,0.85825 -1.29176,0.79364 -1.7637,-0.0882 -0.34883,-0.65178 -0.73866,-0.70556 -5.11528,-0.70556 -4.37662,0 -4.76645,0.0538 -5.11528,0.70556 -0.408,0.76236 -1.22875,0.93324 -1.59969,0.33305 z"
         id="path1683"
         inkscape:connector-curvature="0" />
      <path
         style="fill:#ffffff;fill-opacity:1;stroke-width:0.99999994"
         d="m 138.87013,196.18831 c -0.0793,-0.98328 -3.76011,-9.75785 -4.03959,-9.62987 -0.43585,0.19958 -4.02928,9.44776 -3.77124,9.7058 0.29461,0.29461 7.83481,0.22132 7.81083,-0.0759 z"
         id="path1681"
         inkscape:connector-curvature="0" />
      <path
         style="fill:#000000;stroke-width:0.99999994"
         d="m 133.41214,195.37631 c -0.30926,-0.50039 0.48288,-3.02258 1.11373,-3.54614 0.60527,-0.50233 1.94983,1.61526 1.81523,2.85884 -0.08,0.73902 -0.30453,0.89937 -1.3856,0.98948 -0.71272,0.0594 -1.40348,-0.0758 -1.54336,-0.30218 z"
         id="path1679"
         inkscape:connector-curvature="0" />
    </g>
  </g>
</svg>
